<svg width="172" height="32" viewBox="0 0 172 32" fill="none" xmlns="http://www.w3.org/2000/svg">
<path d="M9.66797 4.67969C15.1661 4.67971 18.5977 7.47097 18.5977 11.9062C18.5976 14.2003 17.4908 15.959 15.5352 16.9531C18.4133 17.9473 20 20.1651 20 23.1475C19.9999 27.9267 16.679 30.6796 10.9229 30.6797H4.65234C4.65239 30.647 4.65057 30.6144 4.65137 30.582C4.69143 28.9601 5.64276 27.1421 7.11914 25.2686C8.57988 23.4149 10.2686 21.8436 11.5195 20.5498C11.8213 20.2376 12.1096 19.9277 12.3496 19.6387C12.569 19.3745 12.8409 19.0199 13.0166 18.626C13.1573 18.3104 13.533 17.2611 12.7168 16.3584C12.3755 15.9809 11.9676 15.8176 11.6895 15.7432C11.4775 15.6864 11.2718 15.6627 11.0908 15.6543L10.9189 15.6504C9.7702 15.6504 8.30566 15.9988 6.9043 16.4209C6.30914 16.6002 5.69419 16.8058 5.07617 17.0215C6.30624 15.1359 7.33438 12.8209 7.56152 10.165C7.71062 8.42147 7.51015 6.58191 6.84668 4.67969H9.66797ZM7.12207 20.0215C6.23584 20.9305 5.25238 21.9829 4.37012 23.1025C2.77896 25.1218 1.22129 27.6975 1.15234 30.4961C1.15083 30.5574 1.15145 30.6186 1.15137 30.6797H0V22.8164C0.0388241 22.7993 0.0780332 22.7813 0.118164 22.7637C1.05596 22.3518 2.33955 21.8034 3.72656 21.2568C4.84566 20.8159 6.01794 20.3819 7.12207 20.0215ZM3.06641 4.67969C3.96359 6.58111 4.20682 8.31472 4.07422 9.86621C3.90303 11.8682 3.09728 13.6964 2.03223 15.2822C1.40039 16.223 0.688786 17.056 0 17.7666V4.67969H3.06641Z" fill="#116BF8"/>
<path d="M22.36 30.6797V1.87969H27.48V30.6797H22.36ZM44.2847 21.6797V9.23969H49.4047V30.6797H44.2847V27.7997C42.8847 30.1597 40.6847 31.2797 38.0447 31.2797C33.8047 31.2797 30.9647 28.7197 30.9647 23.5597V9.23969H36.0847V22.5197C36.0847 25.4397 37.2847 27.0397 39.8047 27.0397C42.5647 27.0397 44.2847 24.5597 44.2847 21.6797ZM72.4888 23.6797C71.3288 28.6397 67.4888 31.2797 62.3688 31.2797C55.8888 31.2797 51.9288 26.9997 51.9288 19.9997C51.9288 12.7197 55.9288 8.63969 62.1688 8.63969C68.4488 8.63969 72.3288 12.8797 72.3288 19.7997V20.9997H57.2088C57.4488 24.9197 59.2488 27.0797 62.3688 27.0797C64.7688 27.0797 66.4088 25.9597 67.0888 23.6797H72.4888ZM62.1688 12.8397C59.4488 12.8397 57.8088 14.5597 57.3288 17.7997H66.9688C66.4888 14.5997 64.8488 12.8397 62.1688 12.8397ZM74.9709 30.6797V9.23969H80.0909V12.3597C81.4909 9.79969 83.6509 8.63969 85.9709 8.63969C86.8509 8.63969 87.6509 8.87969 88.0509 9.23969V13.6797C87.3709 13.4797 86.6109 13.3997 85.6909 13.3997C81.8109 13.3997 80.0909 15.7197 80.0909 19.2797V30.6797H74.9709ZM98.4416 31.2797C92.0816 31.2797 88.1616 26.9997 88.1616 19.9997C88.1616 12.7197 92.2016 8.63969 98.4416 8.63969C104.762 8.63969 108.682 12.9597 108.682 19.9997C108.682 27.1997 104.642 31.2797 98.4416 31.2797ZM98.4416 27.0397C101.682 27.0397 103.402 24.5597 103.402 19.9997C103.402 15.4397 101.642 12.8797 98.4416 12.8797C95.1616 12.8797 93.4416 15.3997 93.4416 19.9997C93.4416 24.5197 95.2016 27.0397 98.4416 27.0397ZM129.764 16.8397H124.644C124.164 14.0397 122.484 12.8797 120.324 12.8797C117.164 12.8797 115.484 15.3997 115.484 19.9997C115.484 24.5197 117.244 27.0397 120.484 27.0397C122.684 27.0397 124.244 25.8397 124.764 23.3997H129.924C128.964 28.7597 125.204 31.2797 120.364 31.2797C114.044 31.2797 110.204 26.9597 110.204 19.9997C110.204 12.7197 114.164 8.63969 120.324 8.63969C125.204 8.63969 129.044 11.3597 129.764 16.8397ZM132.269 30.6797V1.87969H137.389V18.1997L145.149 9.23969H151.149L142.509 18.7597L151.749 30.6797H145.469L137.389 20.3197V30.6797H132.269Z" fill="#116BF8"/>
<path d="M156.38 7.32031V2.92831H154.692V1.88031H159.356V2.92831H157.668V7.32031H156.38ZM159.795 7.32031V1.88031H161.483L162.667 5.09631L162.899 5.90431L163.131 5.09631L164.315 1.88031H165.955V7.32031H164.675L164.747 3.31231L164.331 4.66431L163.339 7.32031H162.411L161.411 4.64831L161.003 3.32031L161.075 7.32031H159.795ZM167.816 3.28031C167.816 4.44031 171.016 3.45631 171.016 5.68031C171.016 6.80031 170.088 7.44831 168.816 7.44831C167.528 7.44831 166.608 6.85631 166.416 5.61631H167.768C167.872 6.15231 168.248 6.44831 168.824 6.44831C169.4 6.44831 169.704 6.21631 169.704 5.84031C169.704 4.62431 166.496 5.55231 166.496 3.40031C166.496 2.48831 167.256 1.75231 168.592 1.75231C169.72 1.75231 170.696 2.28831 170.864 3.54431H169.496C169.384 3.00831 169.072 2.75231 168.544 2.75231C168.096 2.75231 167.816 2.96031 167.816 3.28031Z" fill="#116BF8"/>
<rect x="154" y="24.6797" width="6" height="6" fill="#116BF8"/>
</svg>
