<svg version="1.1" id="Layer_1" xmlns:x="ns_extend;" xmlns:i="ns_ai;" xmlns:graph="ns_graphs;" xmlns="http://www.w3.org/2000/svg" xmlns:xlink="http://www.w3.org/1999/xlink" x="0px" y="0px" viewBox="0 0 426.1 75" style="enable-background:new 0 0 426.1 75;" xml:space="preserve">
 <style type="text/css">
  .st0{fill:#FFFFFF;}
	.st1{fill:#F6C420;}
	.st2{display:none;}
 </style>
 <metadata>
  <sfw xmlns="ns_sfw;">
   <slices>
   </slices>
   <sliceSourceBounds bottomLeftOrigin="true" height="75" width="426.1" x="402.1" y="-310.6">
   </sliceSourceBounds>
  </sfw>
 </metadata>
 <g>
  <g id="Layer_1_1_">
  </g>
  <g id="Layer_2_1_">
   <g>
    <g>
     <path class="st0" d="M260.6,56.7h1.5l5.1,14.3h-1.4l-1.5-4.4h-5.8l-1.5,4.4h-1.3L260.6,56.7z M263.8,65.5l-2.4-7.1h0l-2.4,7.1
					H263.8z">
     </path>
     <path class="st0" d="M277.5,58h-4.6v-1.3h10.6V58h-4.6v13h-1.4L277.5,58L277.5,58z">
     </path>
     <path class="st0" d="M283.7,60.9h1.3v2h0c0.8-1.3,2-2.2,4-2.2h0.2l-0.1,1.2c0,0-0.4,0-0.4,0c-1.7,0-3,0.9-3.8,2.5V71h-1.3V60.9z
					">
     </path>
     <path class="st0" d="M291.2,57.1h1.4v1.4h-1.4V57.1z M291.2,60.9h1.3v10.2h-1.3V60.9z">
     </path>
     <path class="st0" d="M295.4,60.9h1.3v1.6c1-1,2.2-1.8,3.7-1.8c1.7,0,2.5,0.7,2.8,1.8c1.1-1,2.3-1.8,3.8-1.8c2.1,0,3,1.2,3,3v7.4
					h-1.3v-7.1c0-1.4-0.5-2.1-1.9-2.1c-1.2,0-2.3,0.7-3.4,1.8V71h-1.3v-7.1c0-1.4-0.5-2.1-1.9-2.1c-1.2,0-2.3,0.7-3.4,1.8V71h-1.4
					V60.9z">
     </path>
     <path class="st0" d="M314.2,69.7v1.4h-1.3V56.8h1.3v5.6c0.8-0.9,1.9-1.7,3.4-1.7c2.3,0,4.2,1.7,4.2,5.3c0,3.6-1.9,5.3-4.3,5.3
					C316.1,71.3,315.1,70.6,314.2,69.7z M320.4,66c0-2.8-1.4-4.1-3.1-4.1c-1.3,0-2.2,0.6-3.2,1.7v5c1,1.1,2,1.7,3.2,1.7
					C319.2,70.1,320.4,68.9,320.4,66z">
     </path>
     <path class="st0" d="M324.2,56.8h1.3v14.3h-1.3V56.8z">
     </path>
     <path class="st0" d="M327.9,66c0-3.6,2.3-5.3,4.5-5.3c2.4,0,4.2,1.8,4.2,5.3v0.2h-7.3c0,2.5,1.5,3.9,3.2,3.9
					c1.5,0,2.4-0.6,3.2-1.9l0.8,0.6c-0.9,1.4-2.1,2.3-4.1,2.3C329.9,71.3,327.9,69.5,327.9,66z M335.2,65.2
					c-0.1-1.9-1.1-3.4-2.9-3.4c-1.5,0-2.8,1.1-3.1,3.4H335.2z">
     </path>
     <path class="st0" d="M343,63.9c0-4.3,2.4-7.4,5.9-7.4c2.9,0,4.5,1.7,5.2,4.4l-1.3,0.3c-0.6-2.3-1.7-3.4-3.9-3.4
					c-2.7,0-4.5,2.4-4.5,6.1c0,4,1.8,6.3,4.6,6.3c2.1,0,3.5-1.2,4.1-3.6l1.3,0.3c-0.7,2.8-2.5,4.6-5.4,4.6
					C345.3,71.3,343,68.4,343,63.9z">
     </path>
     <path class="st0" d="M356.2,66c0-3.4,2.1-5.3,4.6-5.3c2.5,0,4.6,1.9,4.6,5.3c0,3.4-2.1,5.3-4.6,5.3
					C358.3,71.3,356.2,69.4,356.2,66z M364.1,66c0-2.2-1.1-4.1-3.3-4.1c-2.1,0-3.3,1.7-3.3,4.1c0,2.3,1.1,4.2,3.3,4.2
					C362.9,70.1,364.1,68.4,364.1,66z">
     </path>
     <path class="st0" d="M367.7,60.9h1.3v1.6c1-1,2.2-1.8,3.7-1.8c1.7,0,2.5,0.7,2.8,1.8c1.1-1,2.3-1.8,3.8-1.8c2.1,0,3,1.2,3,3v7.4
					h-1.3v-7.1c0-1.4-0.5-2.1-1.9-2.1c-1.2,0-2.3,0.7-3.4,1.8V71h-1.3v-7.1c0-1.4-0.5-2.1-1.9-2.1c-1.2,0-2.3,0.7-3.4,1.8V71h-1.3
					L367.7,60.9L367.7,60.9z">
     </path>
     <path class="st0" d="M385.2,60.9h1.3v1.5c0.8-0.9,1.9-1.6,3.4-1.6c2.3,0,4.2,1.7,4.2,5.3c0,3.6-1.9,5.3-4.3,5.3
					c-1.3,0-2.4-0.6-3.3-1.6V75h-1.3L385.2,60.9L385.2,60.9z M392.8,66c0-2.8-1.4-4.1-3.1-4.1c-1.3,0-2.2,0.6-3.2,1.7v5
					c1,1.1,2,1.7,3.2,1.7C391.5,70.1,392.8,68.9,392.8,66z">
     </path>
     <path class="st0" d="M395.7,68.7c0-2,1.7-3.5,6.9-4.3v-0.5c0-1.4-0.7-2.1-2.1-2.1c-1.6,0-2.7,0.7-3.8,1.6l-0.7-0.8
					c1.2-1.1,2.6-1.9,4.6-1.9c2.3,0,3.3,1.2,3.3,3.3v4.6c0,1.2,0.1,2,0.3,2.5h-1.4c-0.1-0.4-0.2-0.9-0.2-1.5c-1.2,1.1-2.5,1.6-4,1.6
					C396.8,71.3,395.7,70.3,395.7,68.7z M402.7,68.6v-3.2c-4.4,0.7-5.6,1.8-5.6,3.2c0,1.1,0.7,1.6,1.9,1.6
					C400.4,70.1,401.6,69.5,402.7,68.6z">
     </path>
     <path class="st0" d="M406.7,60.9h1.3v1.6c1-0.9,2.3-1.8,3.9-1.8c2,0,3,1.1,3,3v7.4h-1.3v-7.1c0-1.4-0.6-2.1-2-2.1
					c-1.3,0-2.4,0.7-3.6,1.8V71h-1.3V60.9z">
     </path>
     <path class="st0" d="M416.1,74.8l0.3-1.1c0.3,0.1,0.7,0.2,1.4,0.2c1.1,0,1.7-0.5,2.1-1.6l0.4-1.1l-3.9-10.2h1.4l3.2,8.6h0
					l3.2-8.6h1.4l-4.4,11.3c-0.7,1.8-1.5,2.7-3.4,2.7C417,75,416.5,74.9,416.1,74.8z">
     </path>
    </g>
    <g>
     <g>
      <path class="st1" d="M374.2,39.7v-6.9c4.8-1.5,8.1-5.7,8.1-12.9S379,8.4,374.2,6.9V0.1c8.7,0.2,15.9,9.5,15.7,19.7
						C390.1,30.1,382.9,39.5,374.2,39.7">
      </path>
      <path class="st1" d="M363.6,0.1V7c-4.8,1.5-8.1,5.7-8.1,12.9s3.4,11.4,8.1,12.9v6.9c-8.7-0.2-15.9-9.5-15.7-19.7
						C347.7,9.7,354.9,0.2,363.6,0.1">
      </path>
     </g>
     <polygon class="st0" points="0,0.6 0,6.5 13.5,6.5 13.5,39.1 20.1,39.1 20.1,6.5 33.7,6.5 33.7,0.6 				">
     </polygon>
     <g>
      <path class="st0" d="M56.2,18.4c4.4,0,7-2.4,7-6.2s-2.4-5.7-7-5.7h-9.1v11.9C47.1,18.4,56.2,18.4,56.2,18.4z M40.4,0.6h17.4
						c6.8,0,12,4.5,12,10.5c0,4.9-2.3,8.3-6.4,9.8c4.2,0,5.9,1.7,5.9,5.5v12.9h-6.6V27.9c0-2.9-0.8-3.7-3.7-3.7H47.1v14.9h-6.7V0.6z
						">
      </path>
     </g>
     <path class="st0" d="M93.7,7.5l6.3,16.3H87.3L93.7,7.5z M89.9,0.6L74.6,39.2h6.9l3.6-9.4h17.1l3.6,9.4h7l-15-38.6H89.9z">
     </path>
     <polygon class="st0" points="144.2,0.6 144.2,30.4 127.9,0.6 119,0.6 119,39.1 125.7,39.1 125.7,9.3 142,39.1 150.8,39.1 
					150.8,0.6 				">
     </polygon>
     <path class="st0" d="M165,26.4c0.1,4.5,3.6,7.4,9.3,7.4h0.5c4.5,0,7.1-2.4,7.1-5.2c0-2.6-1.4-4.2-5.1-4.9l-6.5-1.3
					c-6.5-1.4-9.9-5.1-9.9-11c0-6.1,5.5-11.4,14.3-11.4c8.9,0,14.3,5.1,14.4,12.4h-6.6c-0.3-4.1-3.4-6.5-7.7-6.5h-0.5
					c-4.3,0-7.2,2.3-7.2,5.2c0,2.7,1.6,4.1,5,4.9l6,1.2c6.9,1.4,10.7,5,10.7,11.1c0,6.7-5.6,11.5-14.7,11.5c-9.8,0-15.1-5-15.4-13.3
					L165,26.4L165,26.4z">
     </path>
     <path class="st0" d="M213.3,18.6c4.2,0,6.6-2.3,6.6-6c0-3.8-2.4-6.1-6.6-6.1h-9.4v12.1C203.8,18.6,213.3,18.6,213.3,18.6z
					 M197.1,0.6h16.9c7.3,0,12.4,4.4,12.4,12c0,7.4-5.1,12-12.4,12h-10.2v14.7h-6.7V0.6z">
     </path>
     <path class="st0" d="M250.6,33.8c7.1,0,11.6-5.3,11.6-13.9s-4.6-13.9-11.6-13.9H250c-7,0-11.6,5.3-11.6,13.9S243,33.8,250,33.8
					H250.6z M250.3,0c10.7-0.2,18.6,7.7,18.5,19.8c0,12.2-7.7,19.8-18.5,19.8s-18.5-7.6-18.5-19.8C231.7,7.7,239.5-0.1,250.3,0">
     </path>
     <path class="st0" d="M292.9,18.4c4.4,0,7-2.4,7-6.2s-2.4-5.7-7-5.7h-9.1v11.9C283.8,18.4,292.9,18.4,292.9,18.4z M277.2,0.6
					h17.4c6.8,0,12,4.5,12,10.5c0,4.9-2.3,8.3-6.4,9.8c4.2,0,5.9,1.7,5.9,5.5v12.9h-6.6V27.9c0-2.9-0.8-3.7-3.7-3.7h-11.8v14.9h-6.7
					V0.6z">
     </path>
     <polygon class="st0" points="315.8,0.6 315.8,39.1 345.1,39.1 345.1,33.3 322.5,33.3 322.5,22.3 341.3,22.3 341.3,16.4 
					322.5,16.4 322.5,6.5 344.6,6.5 344.6,0.6 				">
     </polygon>
     <polygon class="st0" points="419.5,0.6 419.5,30.4 403.2,0.6 394.3,0.6 394.3,39.1 401,39.1 401,9.3 417.3,39.1 426.1,39.1 
					426.1,0.6 				">
     </polygon>
    </g>
   </g>
  </g>
  <g id="Layer_3">
  </g>
  <g id="Layer_5">
  </g>
  <g id="Layer_6">
  </g>
  <g id="Layer_4" class="st2">
  </g>
 </g>
</svg>