<svg version="1.1" id="svg2" xmlns="http://www.w3.org/2000/svg" x="0" y="0" width="202.1" height="20" xml:space="preserve"><style>.st0{fill:#ee262b}</style><path id="path14" class="st0" d="M44.2 16.1h-.1c-1.3 0-2.8-.7-3.4-2-.1-.1-.1-.3-.1-.4 0-.4.4-.7.8-.7.2 0 .5.1.7.3.5.6 1.3 1.2 2.1 1.2h.1c1.2 0 1.9-.7 1.9-1.3 0-2.6-5.1-.6-5.1-4.4 0-1.9 2-2.5 3.2-2.5h.1c1.4 0 2.2.6 2.6.8.2.2.3.4.3.6 0 .4-.3.7-.7.7-.1 0-.3 0-.4-.1-.4-.2-.8-.5-1.7-.5h-.1c-1.1 0-1.7.5-1.7 1.1 0 2.2 5.1.4 5.1 4.3v.1c-.2 1.9-1.9 2.8-3.6 2.8"/><path id="path16" class="st0" d="M60.8 7.3l-2.3 8.3c-.1.3-.3.6-.7.6h-.2c-.4 0-.7-.3-.8-.6-.5-1.7-1.8-6.4-1.9-6.7-.1.3-1.3 5.1-1.8 6.7-.1.3-.4.6-.7.6h-.2c-.4 0-.7-.3-.7-.6l-2.3-8.2v-.2c0-.4.3-.7.8-.7.3 0 .6.2.7.6l1.7 6 1.8-6c.1-.3.4-.5.8-.5.6 0 .8.2.8.5l1.8 6 1.7-6c.1-.4.4-.6.7-.6.5 0 .8.3.8.7v.1"/><path id="path18" class="st0" d="M63.8 16.1c-.4 0-.8-.3-.8-.7V7.2c0-.5.4-.8.7-.8.4 0 .8.3.8.7v8.2c0 .5-.3.8-.7.8zm-.1-12c-.4 0-.8-.3-.8-.7L63 3c0-.5.4-.7.7-.8.4 0 .8.3.8.7v.4c0 .6-.4.8-.8.8"/><path id="path20" class="st0" d="M70.3 16.1h-.1c-1.3 0-2.8-.7-3.4-2-.1-.1-.1-.3-.1-.4 0-.4.4-.7.8-.7.2 0 .5.1.7.3.5.7 1.3 1.2 2.1 1.2h.1c1.2 0 1.9-.7 1.9-1.3 0-2.6-5.1-.6-5.1-4.4 0-1.9 2-2.5 3.2-2.5h.1c1.4 0 2.3.6 2.6.8.2.2.3.4.3.6 0 .4-.3.7-.7.7-.1 0-.3 0-.4-.1-.4-.2-.8-.5-1.7-.5h-.1c-1.1 0-1.7.5-1.7 1.1 0 2.2 5.1.4 5.1 4.3v.1c-.2 1.8-1.9 2.8-3.6 2.8"/><path id="path22" class="st0" d="M79.2 16h-.1c-1.3 0-2.8-.7-3.4-2-.1-.1-.1-.3-.1-.4 0-.4.4-.7.8-.7.2 0 .5.1.7.3.5.7 1.3 1.2 2.1 1.2h.1c1.2 0 1.9-.7 1.9-1.3 0-2.6-5.1-.6-5.1-4.4 0-1.9 2-2.5 3.2-2.5h.1c1.4 0 2.3.6 2.6.8.2.2.3.4.3.6 0 .4-.3.7-.7.7-.1 0-.3 0-.4-.1-.4-.2-.8-.5-1.7-.5h-.1c-1.1 0-1.7.5-1.7 1.1 0 2.2 5.1.4 5.1 4.3v.1c-.2 1.9-2 2.8-3.6 2.8"/><path id="path24" class="st0" d="M100.9 16c-.4 0-.8-.3-.8-.7V9.5c0-1.1-.7-1.7-1.7-1.7h-.2c-.9 0-1.7.7-1.7 1.7v5.8c0 .5-.4.8-.7.8-.4 0-.8-.3-.8-.8V9.5c0-1-.8-1.7-1.7-1.7h-.2c-.9 0-1.7.6-1.7 1.5v6c0 .5-.4.8-.7.8-.4 0-.8-.3-.8-.7L90 7c0-.5.4-.8.8-.8.3 0 .7.2.7.6.4-.4 1-.6 1.7-.6h.2c1 0 1.9.4 2.4 1.1.6-.7 1.5-1.1 2.4-1.1h.2c1.7 0 3.2 1 3.2 3.1v5.8c.1.6-.3.9-.7.9"/><path id="path26" class="st0" d="M108.8 11.2c-1.5.4-3.5.3-3.5 1.7v.2c0 .8.7 1.4 1.7 1.4h.2c.9 0 1.7-.8 1.7-1.7l-.1-1.6zm1.9 4.8h-.1c-.7-.1-1.1-.4-1.3-.8-.6.5-1.3.8-2.1.8h-.2c-1.6 0-3.2-1-3.2-2.8V13c.1-3.1 4.5-2.6 5-3.2.1-.1.1-.2.1-.3 0-1.2-.7-1.6-1.6-1.6h-.1c-.8 0-1.2.3-1.6 1-.2.3-.4.4-.7.4-.4 0-.8-.3-.8-.7 0-.1 0-.2.1-.4.6-1.4 1.9-1.8 2.9-1.8h.1c1.8 0 3.1 1.3 3.1 3V14c0 .4.2.6.5.6.4.1.6.4.6.7.1.3-.2.7-.7.7"/><path id="path28" class="st0" d="M118.1 9.2c0-.9-.8-1.5-1.7-1.5h-.2c-.9 0-1.7.8-1.7 1.7v3.4c0 .9.8 1.7 1.7 1.7h.2c.9 0 1.7-.6 1.7-1.6V9.2zm.8 6.7c-.3 0-.7-.2-.7-.6-.3.3-.8.6-1.7.6h-.2c-1.8 0-3.2-1.4-3.2-3.2V9.3c0-1.8 1.4-3.2 3.2-3.2h.1c.7 0 1.4.2 1.7.6v-4c0-.5.4-.8.7-.8.4 0 .8.3.8.7V15c0 .7-.3.9-.7.9"/><path id="path30" class="st0" d="M127.2 9.4c0-1-.8-1.7-1.7-1.7h-.2c-.9 0-1.7.8-1.7 1.7v1h3.6v-1zm.8 2.3h-4.3v1c0 .9.8 1.7 1.7 1.7h.2c.8 0 1.3-.5 1.5-1 .1-.3.4-.5.6-.5.4 0 .8.3.8.8 0 .1 0 .2-.1.3-.5 1.1-1.6 1.9-2.9 1.9h-.2c-1.8 0-3.2-1.4-3.2-3.2V9.3c0-1.8 1.4-3.2 3.2-3.2h.2c1.8 0 3.2 1.4 3.2 3.2v1.6c0 .5-.3.8-.7.8"/><path id="path32" class="st0" d="M139.6 16.1h-.1c-1.3 0-2.8-.7-3.4-2-.1-.1-.1-.3-.1-.4 0-.4.4-.7.8-.7.2 0 .5.1.7.3.5.6 1.3 1.2 2.1 1.2h.1c1.2 0 1.9-.7 1.9-1.3 0-2.6-5.1-.6-5.1-4.4 0-1.9 2-2.5 3.2-2.5h.1c1.4 0 2.3.6 2.6.8.2.2.3.4.3.6 0 .4-.3.7-.7.7-.1 0-.3 0-.4-.1-.4-.2-.8-.5-1.7-.5h-.1c-1.1 0-1.7.5-1.7 1.1 0 2.2 5.1.4 5.1 4.3v.1c-.2 1.9-1.9 2.8-3.6 2.8"/><path id="path34" class="st0" d="M150.1 9.5c0-.9-.8-1.7-1.7-1.7h-.2c-.9 0-1.7.8-1.7 1.7v3.4c0 .9.8 1.7 1.7 1.7h.2c.9 0 1.7-.8 1.7-1.7V9.5zm-1.7 6.6h-.2c-1.8 0-3.2-1.4-3.2-3.2V9.5c0-1.8 1.4-3.2 3.2-3.2h.2c1.8 0 3.2 1.4 3.2 3.2v3.4c0 1.8-1.4 3.2-3.2 3.2"/><path id="path36" class="st0" d="M157 3.7c-.6 0-1 .5-1 1.1v1.6h.9c.5 0 .8.4.8.7 0 .4-.3.8-.7.8h-.9v7.4c0 .5-.4.8-.7.8-.4 0-.8-.3-.8-.7V8h-.4c-.5 0-.8-.4-.8-.7 0-.4.3-.8.7-.8h.4V4.9c0-1.5 1.1-2.6 2.5-2.6.5 0 .8.4.8.7 0 .3-.3.7-.8.7"/><path id="path38" class="st0" d="M163.4 16.1c-1.4 0-2.6-1.2-2.6-2.6V7.9h-.7c-.5 0-.8-.4-.8-.7 0-.4.3-.8.7-.8h.7V3c0-.5.4-.8.7-.8.4 0 .8.3.8.7v3.4h1.1c.5 0 .8.4.8.7 0 .4-.3.8-.7.8h-1.1v5.6c0 .7.5 1.1 1.1 1.1.5 0 .7.4.7.7 0 .5-.2.9-.7.9"/><path id="path40" class="st0" d="M177.5 7.2l-2.3 8.3c-.1.3-.3.6-.7.6h-.2c-.4 0-.7-.3-.8-.6-.5-1.7-1.8-6.4-1.9-6.7-.1.3-1.3 5.1-1.8 6.7-.1.3-.4.6-.7.6h-.2c-.4 0-.7-.3-.7-.6l-2.3-8.2v-.2c0-.4.3-.7.8-.7.3 0 .6.2.7.6l1.7 6 1.8-6c.1-.3.4-.5.8-.5.6 0 .8.2.8.5l1.8 6 1.7-6c.1-.4.4-.6.7-.6.5 0 .8.3.8.7v.1"/><path id="path42" class="st0" d="M184.2 11.3c-1.5.4-3.5.3-3.5 1.7v.2c0 .8.7 1.4 1.7 1.4h.2c.9 0 1.7-.8 1.7-1.7l-.1-1.6zm1.9 4.7h-.1c-.7-.1-1.1-.4-1.3-.8-.6.5-1.3.8-2.1.8h-.2c-1.6 0-3.2-1-3.2-2.8V13c.1-3.1 4.5-2.6 5-3.2.1-.1.1-.2.1-.3 0-1.2-.7-1.6-1.6-1.6h-.1c-.8 0-1.2.3-1.6 1-.2.3-.4.4-.7.4-.4 0-.8-.3-.8-.7 0-.1 0-.2.1-.4.6-1.4 1.9-1.8 2.9-1.8h.1c1.8 0 3.1 1.3 3.1 3V14c0 .4.2.6.5.6.4.1.6.4.6.7 0 .3-.2.7-.7.7"/><path id="path44" class="st0" d="M193.1 8.4c-.2 0-.4-.1-.6-.3-.2-.2-.4-.4-.9-.4-1.2 0-1.3.7-1.3 1.3v6.1c0 .5-.4.8-.7.8-.4 0-.8-.3-.8-.8V6.9c0-.5.4-.7.8-.8.3 0 .5.1.7.4 0 0 .4-.4 1.4-.4.7 0 1.6.3 2.1 1 .1.2.2.4.2.5-.1.5-.5.8-.9.8"/><path id="path46" class="st0" d="M200.6 9.4c0-1-.8-1.7-1.7-1.7h-.2c-.9 0-1.7.8-1.7 1.7v1h3.5l.1-1zm.7 2.4H197v1c0 .9.8 1.7 1.7 1.7h.2c.8 0 1.3-.5 1.5-1 .1-.3.4-.5.6-.5.4 0 .8.3.8.8 0 .1 0 .2-.1.3-.5 1.1-1.6 1.9-2.9 1.9h-.2c-1.8 0-3.2-1.4-3.2-3.2V9.4c0-1.8 1.4-3.2 3.2-3.2h.2c1.8 0 3.2 1.4 3.2 3.2V11c.1.4-.2.8-.7.8"/><path id="path60" class="st0" d="M23.3 2.7H14c-.3-.7-.6-1.5-.6-1.5-.3-.7-1-1.2-1.8-1.2H3.7C3 0 2.3.4 2 1.1L.2 5.4c-.1.2-.2.5-.2.7v12c0 1 .8 1.9 1.9 1.9h21.4c1 0 1.9-.8 1.9-1.9V4.6c0-1.1-.8-1.9-1.9-1.9"/><path id="path62" d="M16.2 12h-2.6v2.6c0 .6-.5.9-.9.9-.5 0-.9-.3-.9-.9V12H9.1c-.6 0-.9-.5-.9-.9 0-.5.3-.9.9-.9h2.6V7.6c0-.6.5-.9.9-.9.5 0 .9.3.9.9v2.6h2.6c.6 0 .9.5.9.9.1.5-.2.9-.8.9" fill="#fff"/></svg>